<svg width="479" height="40" viewBox="0 0 479 40" xmlns="http://www.w3.org/2000/svg">
  <title>
    Syosset High School
  </title>
  <path d="M10.34 40c-2.5635 0-5.8409-.55914-9.8323-1.6774v-5.3678c4.3011 1.9957 7.8366 2.9936 10.607 2.9936 2.1334 0 3.8495-.55914 5.1484-1.6774 1.2989-1.1183 1.9484-2.5893 1.9484-4.4129 0-1.4968-.42581-2.7699-1.2774-3.8194-.85162-1.0495-2.4215-2.2194-4.7097-3.5097l-2.6323-1.5226c-3.2517-1.8581-5.5441-3.6086-6.8775-5.2517-1.3333-1.643-2-3.557-2-5.742 0-2.942 1.0667-5.3635 3.2-7.2646C6.048.847 8.7662-.1035 12.0695-.1035c2.942 0 6.0473.49032 9.3162 1.471v4.9549c-4.0259-1.5828-7.028-2.3742-9.0065-2.3742-1.8753 0-3.4237.49892-4.6452 1.4968S5.9017 7.6988 5.9017 9.2128c0 1.2731.44731 2.4 1.3419 3.3807.89463.98066 2.529 2.1505 4.9033 3.5097l2.7355 1.5484c3.3033 1.8753 5.6086 3.6473 6.9162 5.3162 1.3075 1.6688 1.9613 3.6731 1.9613 6.0129 0 3.3205-1.2258 5.9871-3.6774 8.0001-2.4516 2.0129-5.6989 3.0194-9.742 3.0194zm22.947-.95485v-15.949L20.539.85115h6.1936l9.9097 17.239 10.684-17.239h5.0323l-13.652 22.142v16.052h-5.4194zM67.047 40c-5.299 0-9.5613-1.8366-12.787-5.5097s-4.8387-8.5291-4.8387-14.568c0-6.0732 1.6215-10.929 4.8646-14.568 3.2431-3.6388 7.5742-5.4581 12.994-5.4581 5.4022 0 9.7291 1.815 12.981 5.4452 3.2517 3.6302 4.8775 8.4731 4.8775 14.529 0 6.1764-1.6258 11.075-4.8775 14.697-3.2517 3.6215-7.6559 5.4323-13.213 5.4323zm.07742-4.0516c3.9054 0 6.9248-1.4064 9.0581-4.2194 2.1334-2.8129 3.2-6.7828 3.2-11.91 0-4.9721-1.071-8.8603-3.2129-11.665-2.142-2.8043-5.1054-4.2065-8.8904-4.2065-3.8022 0-6.7699 1.4064-8.9033 4.2194-2.1334 2.8129-3.2 6.7226-3.2 11.729 0 4.9893 1.0581 8.9119 3.1742 11.768s5.0409 4.2839 8.7743 4.2839zM93.91642 40c-2.5635 0-5.8409-.55914-9.8323-1.6774v-5.3678c4.3011 1.9957 7.8366 2.9936 10.607 2.9936 2.1334 0 3.8495-.55914 5.1484-1.6774 1.2989-1.1183 1.9484-2.5893 1.9484-4.4129 0-1.4968-.4258-2.7699-1.2774-3.8194-.85162-1.0495-2.4215-2.2194-4.7097-3.5097l-2.6323-1.5226c-3.2517-1.8581-5.5441-3.6086-6.8775-5.2517s-2-3.557-2-5.742c0-2.942 1.0667-5.3635 3.2-7.2646 2.1334-1.9011 4.8516-2.8516 8.1549-2.8516 2.942 0 6.0473.49032 9.3162 1.471v4.9549c-4.0259-1.5828-7.028-2.3742-9.0065-2.3742-1.8753 0-3.4237.49892-4.6452 1.4968s-1.8323 2.2538-1.8323 3.7678c0 1.2731.44731 2.4 1.3419 3.3807.89463.98066 2.529 2.1505 4.9033 3.5097l2.7355 1.5484c3.3033 1.8753 5.6086 3.6473 6.9162 5.3162 1.3075 1.6688 1.9613 3.6731 1.9613 6.0129 0 3.3205-1.2258 5.9871-3.6774 8.0001-2.4516 2.0129-5.6989 3.0194-9.742 3.0194zm22.173 0c-2.5635 0-5.8409-.55914-9.8323-1.6774v-5.3678c4.3011 1.9957 7.8366 2.9936 10.607 2.9936 2.1334 0 3.8495-.55914 5.1484-1.6774 1.2989-1.1183 1.9484-2.5893 1.9484-4.4129 0-1.4968-.4258-2.7699-1.2774-3.8194-.85162-1.0495-2.4215-2.2194-4.7097-3.5097l-2.6323-1.5226c-3.2517-1.8581-5.5441-3.6086-6.8775-5.2517-1.3334-1.643-2-3.557-2-5.742 0-2.942 1.0667-5.3635 3.2-7.2646 2.1334-1.9011 4.8516-2.8516 8.1549-2.8516 2.942 0 6.0473.49032 9.3162 1.471v4.9549c-4.0259-1.5828-7.028-2.3742-9.0065-2.3742-1.8753 0-3.4237.49892-4.6452 1.4968-1.2215.99786-1.8323 2.2538-1.8323 3.7678 0 1.2731.44731 2.4 1.3419 3.3807.89463.98066 2.529 2.1505 4.9033 3.5097l2.7355 1.5484c3.3033 1.8753 5.6086 3.6473 6.9162 5.3162 1.3075 1.6688 1.9613 3.6731 1.9613 6.0129 0 3.3205-1.2258 5.9871-3.6774 8.0001-2.4516 2.0129-5.6989 3.0194-9.742 3.0194zm14.689-.95485V.85115h21.342v4.0516h-15.923v12.258h13.342v4h-13.342v13.832h17.032v4.0516h-22.452zm31.437 0v-34.142h-13.548V.85155h32.516v4.0516h-13.548v34.142h-5.4194zm25.915 0V.85115h5.4194v16.103h18.168V.85115h5.4194v38.194h-5.4194v-18.039h-18.168v18.039h-5.4194zm32.521 0V.85115h5.4194v38.194h-5.4194zm37.657-1.0323c-4.628 1.3247-8.6624 1.9871-12.103 1.9871-6.0732 0-10.731-1.729-13.974-5.1871s-4.8646-8.4129-4.8646-14.865c0-6.3313 1.643-11.256 4.9291-14.774 3.2861-3.5183 7.8968-5.2775 13.832-5.2775 3.8882 0 7.9312.57634 12.129 1.729v5.0065c-5.2646-1.7893-9.299-2.6839-12.103-2.6839-4.1291 0-7.3334 1.4021-9.613 4.2065-2.2796 2.8043-3.4194 6.7527-3.4194 11.845 0 5.0409 1.2215 8.9592 3.6645 11.755 2.443 2.7957 5.8667 4.1936 10.271 4.1936 1.8065 0 3.7592-.31828 5.8581-.95485v-12.439h5.3936v15.458zm3.2049 1.0323V.85115h5.4194v16.103h18.168V.85115h5.4194v38.194h-5.4194v-18.039h-18.168v18.039h-5.4194zm47.902.95485c-2.5635 0-5.8409-.55914-9.8323-1.6774v-5.3678c4.3011 1.9957 7.8366 2.9936 10.607 2.9936 2.1334 0 3.8495-.55914 5.1484-1.6774 1.2989-1.1183 1.9484-2.5893 1.9484-4.4129 0-1.4968-.4258-2.7699-1.2774-3.8194-.85162-1.0495-2.4215-2.2194-4.7097-3.5097l-2.6323-1.5226c-3.2517-1.8581-5.5441-3.6086-6.8775-5.2517s-2-3.557-2-5.742c0-2.942 1.0667-5.3635 3.2-7.2646 2.1334-1.9011 4.8516-2.8516 8.1549-2.8516 2.942 0 6.0473.49032 9.3162 1.471v4.9549c-4.0259-1.5828-7.028-2.3742-9.0065-2.3742-1.8753 0-3.4237.49892-4.6452 1.4968s-1.8323 2.2538-1.8323 3.7678c0 1.2731.44731 2.4 1.3419 3.3807.89463.98066 2.529 2.1505 4.9033 3.5097l2.7355 1.5484c3.3033 1.8753 5.6086 3.6473 6.9162 5.3162 1.3075 1.6688 1.9613 3.6731 1.9613 6.0129 0 3.3205-1.2258 5.9871-3.6774 8.0001-2.4516 2.0129-5.6989 3.0194-9.742 3.0194zm31.05 0c-5.9356 0-10.52-1.7419-13.755-5.2258-3.2344-3.4839-4.8516-8.4172-4.8516-14.8 0-6.3657 1.6473-11.303 4.942-14.813s7.9355-5.2646 13.923-5.2646c3.4237 0 7.4323.55914 12.026 1.6774v5.0839c-5.2302-1.8065-9.2646-2.7097-12.103-2.7097-4.1463 0-7.3549 1.4021-9.6259 4.2065-2.271 2.8043-3.4065 6.7613-3.4065 11.871 0 4.8689 1.2129 8.7097 3.6387 11.523s5.7377 4.2194 9.9356 4.2194c3.6129 0 7.4839-1.1097 11.613-3.3291v4.6452c-3.7678 1.9441-7.8796 2.9162-12.336 2.9162zm13.915-.95485V.85115h5.4194v16.103h18.168V.85115h5.4194v38.194h-5.4194v-18.039h-18.168v18.039h-5.4194zm47.928.95485c-5.299 0-9.5613-1.8366-12.787-5.5097-3.2258-3.6732-4.8387-8.5291-4.8387-14.568 0-6.0732 1.6215-10.929 4.8646-14.568 3.2431-3.6388 7.5742-5.4581 12.994-5.4581 5.4022 0 9.7291 1.815 12.981 5.4452 3.2517 3.6302 4.8775 8.4731 4.8775 14.529 0 6.1764-1.6258 11.075-4.8775 14.697-3.2517 3.6215-7.6559 5.4323-13.213 5.4323zm.07742-4.0516c3.9054 0 6.9248-1.4064 9.0581-4.2194 2.1334-2.8129 3.2-6.7828 3.2-11.91 0-4.9721-1.071-8.8603-3.2129-11.665-2.142-2.8043-5.1054-4.2065-8.8904-4.2065-3.8022 0-6.7699 1.4064-8.9033 4.2194-2.1334 2.8129-3.2 6.7226-3.2 11.729 0 4.9893 1.0581 8.9119 3.1742 11.768s5.0409 4.2839 8.7743 4.2839zM437.07474 40c-5.299 0-9.5613-1.8366-12.787-5.5097-3.2258-3.6732-4.8387-8.5291-4.8387-14.568 0-6.0732 1.6215-10.929 4.8646-14.568 3.2431-3.6388 7.5742-5.4581 12.994-5.4581 5.4022 0 9.7291 1.815 12.981 5.4452 3.2517 3.6302 4.8775 8.4731 4.8775 14.529 0 6.1764-1.6258 11.075-4.8775 14.697-3.2517 3.6215-7.6559 5.4323-13.213 5.4323zm.07742-4.0516c3.9054 0 6.9248-1.4064 9.0581-4.2194 2.1334-2.8129 3.2-6.7828 3.2-11.91 0-4.9721-1.071-8.8603-3.2129-11.665-2.142-2.8043-5.1054-4.2065-8.8904-4.2065-3.8022 0-6.7699 1.4064-8.9033 4.2194-2.1334 2.8129-3.2 6.7226-3.2 11.729 0 4.9893 1.0581 8.9119 3.1742 11.768s5.0409 4.2839 8.7743 4.2839zm19.308 3.0968V.8512h5.4194v34.142h17.187v4.0516h-22.607z" fill="#A85770" fill-rule="evenodd"/>
</svg>
