<?xml version="1.0" encoding="UTF-8"?>
<svg width="479px" height="40px" viewBox="0 0 479 40" version="1.1" xmlns="http://www.w3.org/2000/svg" xmlns:xlink="http://www.w3.org/1999/xlink">
    <!-- Generator: Sketch 41.2 (35397) - http://www.bohemiancoding.com/sketch -->
    <title>Artboard</title>
    <desc>Created with Sketch.</desc>
    <defs></defs>
    <g id="Page-1" stroke="none" stroke-width="1" fill="none" fill-rule="evenodd">
        <g id="Artboard" fill="#A85770">
            <path d="M10.3401416,40 C7.77666942,40 4.49925915,39.4408618 0.5078125,38.3225685 L0.5078125,32.9547878 C4.80894036,34.9505111 8.34441442,35.9483578 11.1143408,35.9483578 C13.2477002,35.9483578 14.9638245,35.3892196 16.2627651,34.2709263 C17.5617057,33.1526331 18.2111662,31.6816694 18.2111662,29.8579912 C18.2111662,28.3611987 17.785361,27.088084 16.9337377,26.0386088 C16.0821143,24.9891336 14.5122262,23.8192444 12.2240262,22.528906 L9.59174912,21.0063144 C6.34009645,19.1482271 4.04762969,17.3976943 2.71428006,15.7546635 C1.38093042,14.1116327 0.714265605,12.1976595 0.714265605,10.0126865 C0.714265605,7.07071506 1.78092931,4.6492164 3.91428873,2.74811789 C6.04764815,0.847019373 8.76592018,-0.103515625 12.0691864,-0.103515625 C15.0111578,-0.103515625 18.1165256,0.386805596 21.3853827,1.36746275 L21.3853827,6.32233726 C17.3595271,4.73952221 14.3573848,3.94812656 12.378866,3.94812656 C10.5035743,3.94812656 8.95519148,4.44704991 7.73367117,5.44491157 C6.51215086,6.44277323 5.90139987,7.69868373 5.90139987,9.21268073 C5.90139987,10.4858146 6.34871045,11.6126932 7.24334505,12.5933503 C8.13797964,13.5740075 9.77238371,14.7438967 12.1466063,16.1030531 L14.8821099,17.6514514 C18.1853761,19.5267431 20.4907461,21.2987812 21.7982889,22.9676188 C23.1058318,24.6364565 23.7595934,26.640752 23.7595934,28.9805655 C23.7595934,32.3010362 22.5337904,34.9676955 20.0821475,36.9806233 C17.6305046,38.9935512 14.3832018,40 10.3401416,40 Z M33.2871585,39.0451544 L33.2871585,23.096652 L20.5386792,0.851329985 L26.7322724,0.851329985 L36.6420214,18.0901642 L47.3259696,0.851329985 L52.358264,0.851329985 L38.7065525,22.9934255 L38.7065525,39.0451544 L33.2871585,39.0451544 Z M67.0471567,40 C61.7481671,40 57.4858134,38.163446 54.2599675,34.4902828 C51.0341216,30.8171196 49.4212228,25.9612191 49.4212228,19.9224355 C49.4212228,13.849243 51.0427237,8.9933425 54.2857741,5.35458834 C57.5288245,1.71583417 61.8599953,-0.103515625 67.2794164,-0.103515625 C72.681633,-0.103515625 77.0085027,1.7115331 80.2601554,5.34168502 C83.511808,8.97183693 85.13761,13.8148342 85.13761,19.8708223 C85.13761,26.0472419 83.511808,30.946153 80.2601554,34.5677027 C77.0085027,38.1892523 72.6042138,40 67.0471567,40 Z M67.1245766,35.9483578 C71.0300007,35.9483578 74.0493471,34.5419101 76.1827065,31.7289725 C78.316066,28.9160349 79.3827297,24.9461534 79.3827297,19.819209 C79.3827297,14.8471052 78.3117649,10.9589439 76.1698032,8.15460857 C74.0278416,5.35027321 71.0644089,3.94812656 67.2794164,3.94812656 C63.4772194,3.94812656 60.5094857,5.35457427 58.3761262,8.16751189 C56.2427668,10.9804495 55.1761031,14.8901161 55.1761031,19.8966289 C55.1761031,24.8859372 56.2341647,28.808507 58.3503196,31.6644559 C60.4664745,34.5204048 63.3911976,35.9483578 67.1245766,35.9483578 Z M93.9167825,40 C91.3533103,40 88.0759,39.4408618 84.0844534,38.3225685 L84.0844534,32.9547878 C88.3855812,34.9505111 91.9210553,35.9483578 94.6909816,35.9483578 C96.824341,35.9483578 98.5404653,35.3892196 99.8394059,34.2709263 C101.138347,33.1526331 101.787807,31.6816694 101.787807,29.8579912 C101.787807,28.3611987 101.362002,27.088084 100.510379,26.0386088 C99.6587552,24.9891336 98.0888671,23.8192444 95.8006671,22.528906 L93.16839,21.0063144 C89.9167373,19.1482271 87.6242705,17.3976943 86.2909209,15.7546635 C84.9575713,14.1116327 84.2909065,12.1976595 84.2909065,10.0126865 C84.2909065,7.07071506 85.3575702,4.6492164 87.4909296,2.74811789 C89.624289,0.847019373 92.342561,-0.103515625 95.6458272,-0.103515625 C98.5877987,-0.103515625 101.693166,0.386805596 104.962024,1.36746275 L104.962024,6.32233726 C100.936168,4.73952221 97.9340257,3.94812656 95.9555069,3.94812656 C94.0802151,3.94812656 92.5318323,4.44704991 91.310312,5.44491157 C90.0887917,6.44277323 89.4780407,7.69868373 89.4780407,9.21268073 C89.4780407,10.4858146 89.9253513,11.6126932 90.8199859,12.5933503 C91.7146205,13.5740075 93.3490246,14.7438967 95.7232471,16.1030531 L98.4587508,17.6514514 C101.762017,19.5267431 104.067387,21.2987812 105.37493,22.9676188 C106.682473,24.6364565 107.336234,26.640752 107.336234,28.9805655 C107.336234,32.3010362 106.110431,34.9676955 103.658788,36.9806233 C101.207145,38.9935512 97.9598427,40 93.9167825,40 Z M116.0896,40 C113.526128,40 110.248718,39.4408618 106.257271,38.3225685 L106.257271,32.9547878 C110.558399,34.9505111 114.093873,35.9483578 116.863799,35.9483578 C118.997159,35.9483578 120.713283,35.3892196 122.012224,34.2709263 C123.311164,33.1526331 123.960625,31.6816694 123.960625,29.8579912 C123.960625,28.3611987 123.53482,27.088084 122.683196,26.0386088 C121.831573,24.9891336 120.261685,23.8192444 117.973485,22.528906 L115.341208,21.0063144 C112.089555,19.1482271 109.797088,17.3976943 108.463739,15.7546635 C107.130389,14.1116327 106.463724,12.1976595 106.463724,10.0126865 C106.463724,7.07071506 107.530388,4.6492164 109.663747,2.74811789 C111.797107,0.847019373 114.515379,-0.103515625 117.818645,-0.103515625 C120.760616,-0.103515625 123.865984,0.386805596 127.134841,1.36746275 L127.134841,6.32233726 C123.108986,4.73952221 120.106843,3.94812656 118.128325,3.94812656 C116.253033,3.94812656 114.70465,4.44704991 113.48313,5.44491157 C112.261609,6.44277323 111.650858,7.69868373 111.650858,9.21268073 C111.650858,10.4858146 112.098169,11.6126932 112.992804,12.5933503 C113.887438,13.5740075 115.521842,14.7438967 117.896065,16.1030531 L120.631568,17.6514514 C123.934835,19.5267431 126.240205,21.2987812 127.547747,22.9676188 C128.85529,24.6364565 129.509052,26.640752 129.509052,28.9805655 C129.509052,32.3010362 128.283249,34.9676955 125.831606,36.9806233 C123.379963,38.9935512 120.13266,40 116.0896,40 Z M130.778493,39.0451544 L130.778493,0.851329985 L152.120583,0.851329985 L152.120583,4.90297217 L136.197887,4.90297217 L136.197887,17.1611253 L149.539919,17.1611253 L149.539919,21.1611542 L136.197887,21.1611542 L136.197887,34.9935122 L153.230268,34.9935122 L153.230268,39.0451544 L130.778493,39.0451544 Z M162.215894,39.0451544 L162.215894,4.90297217 L148.667409,4.90297217 L148.667409,0.851329985 L181.183773,0.851329985 L181.183773,4.90297217 L167.635288,4.90297217 L167.635288,39.0451544 L162.215894,39.0451544 Z M188.130674,39.0451544 L188.130674,0.851329985 L193.550068,0.851329985 L193.550068,16.9546722 L211.717941,16.9546722 L211.717941,0.851329985 L217.137335,0.851329985 L217.137335,39.0451544 L211.717941,39.0451544 L211.717941,21.0063144 L193.550068,21.0063144 L193.550068,39.0451544 L188.130674,39.0451544 Z M220.651953,39.0451544 L220.651953,0.851329985 L226.071347,0.851329985 L226.071347,39.0451544 L220.651953,39.0451544 Z M258.308754,38.0128889 C253.68074,39.3376362 249.646343,40 246.205441,40 C240.132248,40 235.474196,38.2709725 232.231146,34.8128657 C228.988096,31.3547589 227.366595,26.399934 227.366595,19.9482422 C227.366595,13.616982 229.009601,8.69226446 232.295663,5.17394187 C235.581724,1.65561928 240.192464,-0.103515625 246.128021,-0.103515625 C250.01624,-0.103515625 254.05924,0.472826863 258.257141,1.62552913 L258.257141,6.63201692 C252.99256,4.84274773 248.958163,3.94812656 246.153827,3.94812656 C242.024745,3.94812656 238.820452,5.35027321 236.540855,8.15460857 C234.261257,10.9589439 233.121475,14.9073201 233.121475,19.9998555 C233.121475,25.0407773 234.342977,28.959046 236.786018,31.7547791 C239.229058,34.5505122 242.652705,35.9483578 247.05706,35.9483578 C248.863533,35.9483578 250.816216,35.6300791 252.915167,34.9935122 L252.915167,22.5547126 L258.308754,22.5547126 L258.308754,38.0128889 Z M261.513693,39.0451544 L261.513693,0.851329985 L266.933087,0.851329985 L266.933087,16.9546722 L285.10096,16.9546722 L285.10096,0.851329985 L290.520354,0.851329985 L290.520354,39.0451544 L285.10096,39.0451544 L285.10096,21.0063144 L266.933087,21.0063144 L266.933087,39.0451544 L261.513693,39.0451544 Z M309.415728,40 C306.852256,40 303.574846,39.4408618 299.583399,38.3225685 L299.583399,32.9547878 C303.884527,34.9505111 307.420001,35.9483578 310.189928,35.9483578 C312.323287,35.9483578 314.039411,35.3892196 315.338352,34.2709263 C316.637293,33.1526331 317.286753,31.6816694 317.286753,29.8579912 C317.286753,28.3611987 316.860948,27.088084 316.009325,26.0386088 C315.157701,24.9891336 313.587813,23.8192444 311.299613,22.528906 L308.667336,21.0063144 C305.415683,19.1482271 303.123217,17.3976943 301.789867,15.7546635 C300.456517,14.1116327 299.789852,12.1976595 299.789852,10.0126865 C299.789852,7.07071506 300.856516,4.6492164 302.989876,2.74811789 C305.123235,0.847019373 307.841507,-0.103515625 311.144773,-0.103515625 C314.086745,-0.103515625 317.192112,0.386805596 320.46097,1.36746275 L320.46097,6.32233726 C316.435114,4.73952221 313.432972,3.94812656 311.454453,3.94812656 C309.579161,3.94812656 308.030778,4.44704991 306.809258,5.44491157 C305.587738,6.44277323 304.976987,7.69868373 304.976987,9.21268073 C304.976987,10.4858146 305.424297,11.6126932 306.318932,12.5933503 C307.213566,13.5740075 308.847971,14.7438967 311.222193,16.1030531 L313.957697,17.6514514 C317.260963,19.5267431 319.566333,21.2987812 320.873876,22.9676188 C322.181419,24.6364565 322.83518,26.640752 322.83518,28.9805655 C322.83518,32.3010362 321.609377,34.9676955 319.157734,36.9806233 C316.706091,38.9935512 313.458789,40 309.415728,40 Z M340.46603,40 C334.530473,40 329.94554,38.2580693 326.711092,34.7741558 C323.476643,31.2902422 321.859444,26.3569226 321.859444,19.9740488 C321.859444,13.6083796 323.506751,8.67075888 326.801415,5.16103855 C330.096079,1.65131822 334.736926,-0.103515625 340.724096,-0.103515625 C344.147794,-0.103515625 348.156385,0.455622609 352.749989,1.57391585 L352.749989,6.65782356 C347.519818,4.85134986 343.485421,3.94812656 340.646676,3.94812656 C336.500389,3.94812656 333.291796,5.35027321 331.0208,8.15460857 C328.749805,10.9589439 327.614324,14.9159222 327.614324,20.0256621 C327.614324,24.8945388 328.827224,28.7353884 331.25306,31.548326 C333.678896,34.3612636 336.990715,35.7677113 341.188616,35.7677113 C344.801563,35.7677113 348.67252,34.658037 352.801603,32.438655 L352.801603,37.0838499 C349.033815,39.0279597 344.921998,40 340.46603,40 Z M354.380723,39.0451544 L354.380723,0.851329985 L359.800117,0.851329985 L359.800117,16.9546722 L377.96799,16.9546722 L377.96799,0.851329985 L383.387384,0.851329985 L383.387384,39.0451544 L377.96799,39.0451544 L377.96799,21.0063144 L359.800117,21.0063144 L359.800117,39.0451544 L354.380723,39.0451544 Z M402.308566,40 C397.009576,40 392.747222,38.163446 389.521376,34.4902828 C386.295531,30.8171196 384.682632,25.9612191 384.682632,19.9224355 C384.682632,13.849243 386.304133,8.9933425 389.547183,5.35458834 C392.790234,1.71583417 397.121404,-0.103515625 402.540825,-0.103515625 C407.943042,-0.103515625 412.269912,1.7115331 415.521564,5.34168502 C418.773217,8.97183693 420.399019,13.8148342 420.399019,19.8708223 C420.399019,26.0472419 418.773217,30.946153 415.521564,34.5677027 C412.269912,38.1892523 407.865623,40 402.308566,40 Z M402.385986,35.9483578 C406.29141,35.9483578 409.310756,34.5419101 411.444116,31.7289725 C413.577475,28.9160349 414.644139,24.9461534 414.644139,19.819209 C414.644139,14.8471052 413.573174,10.9589439 411.431212,8.15460857 C409.289251,5.35027321 406.325818,3.94812656 402.540825,3.94812656 C398.738628,3.94812656 395.770895,5.35457427 393.637535,8.16751189 C391.504176,10.9804495 390.437512,14.8901161 390.437512,19.8966289 C390.437512,24.8859372 391.495574,28.808507 393.611729,31.6644559 C395.727884,34.5204048 398.652607,35.9483578 402.385986,35.9483578 Z M437.075023,40 C431.776033,40 427.513679,38.163446 424.287834,34.4902828 C421.061988,30.8171196 419.449089,25.9612191 419.449089,19.9224355 C419.449089,13.849243 421.07059,8.9933425 424.31364,5.35458834 C427.556691,1.71583417 431.887861,-0.103515625 437.307283,-0.103515625 C442.709499,-0.103515625 447.036369,1.7115331 450.288021,5.34168502 C453.539674,8.97183693 455.165476,13.8148342 455.165476,19.8708223 C455.165476,26.0472419 453.539674,30.946153 450.288021,34.5677027 C447.036369,38.1892523 442.63208,40 437.075023,40 Z M437.152443,35.9483578 C441.057867,35.9483578 444.077213,34.5419101 446.210573,31.7289725 C448.343932,28.9160349 449.410596,24.9461534 449.410596,19.819209 C449.410596,14.8471052 448.339631,10.9589439 446.197669,8.15460857 C444.055708,5.35027321 441.092275,3.94812656 437.307283,3.94812656 C433.505085,3.94812656 430.537352,5.35457427 428.403992,8.16751189 C426.270633,10.9804495 425.203969,14.8901161 425.203969,19.8966289 C425.203969,24.8859372 426.262031,28.808507 428.378186,31.6644559 C430.494341,34.5204048 433.419064,35.9483578 437.152443,35.9483578 Z M456.460724,39.0451544 L456.460724,0.851329985 L461.880118,0.851329985 L461.880118,34.9935122 L479.067339,34.9935122 L479.067339,39.0451544 L456.460724,39.0451544 Z" id="SYOSSET-HIGH-SCHOOL"></path>
        </g>
    </g>
</svg>