<?xml version="1.0" encoding="UTF-8"?>
<svg width="30px" height="32px" viewBox="0 0 77 88" version="1.1" xmlns="http://www.w3.org/2000/svg" xmlns:xlink="http://www.w3.org/1999/xlink">
    <!-- Generator: Sketch 42 (36781) - http://www.bohemiancoding.com/sketch -->
    <g id="icon" stroke="none" stroke-width="1" fill="none" fill-rule="evenodd">
        <path d="M0,9.6 C0,4.26 4.28,0 9.55,0 L76.65,0 L76.65,3.84 L74.73,3.84 C71.6,3.84 69,6.42 69,9.6 C69,12.8 71.56,15.36 74.73,15.36 L76.66,15.36 L76.66,87.38 L19.16,87.38 L19.16,15.36 L67.1,15.36 C67.1,15.36 65.18,12.33 65.18,9.5 C65.18,6.67 67.1,3.84 67.1,3.84 L9.56,3.84 C6.4,3.84 3.83,6.4 3.83,9.6 C3.83,12.78 6.39,15.36 9.56,15.36 L15.33,15.36 L15.33,87.38 L11.48,87.38 C5.15,87.38 0,82.22 0,75.86 L0,9.6 Z M52.32,58.26 L54.18,60.19 L54.18,65.89 L52.32,67.74 L43.6,67.74 L41.65,65.79 L41.65,60.19 L25.25,60.19 L25.25,71.69 L34.78,81.23 L61.05,81.23 L70.57,71.68 L70.57,54.4 L61.05,44.8 L43.6,44.8 L41.65,42.92 L41.65,36.9 L43.59,34.96 L52.29,34.96 L54.12,36.89 L54.12,42.82 L70.52,42.82 L70.52,31.02 L61,21.43 L34.8,21.43 L25.28,31.03 L25.28,48.7 L34.8,58.26 L52.34,58.26 L52.32,58.26 Z" id="Shape" fill="#FFFFFF" fill-rule="nonzero"></path>
    </g>
</svg>