<?xml version="1.0" encoding="UTF-8"?>
<svg width="196px" height="96px" viewBox="0 0 196 96" version="1.1" xmlns="http://www.w3.org/2000/svg" xmlns:xlink="http://www.w3.org/1999/xlink">
    <!-- Generator: Sketch 41.2 (35397) - http://www.bohemiancoding.com/sketch -->
    <title>Artboard</title>
    <desc>Created with Sketch.</desc>
    <defs>
        <linearGradient x1="50%" y1="0%" x2="50%" y2="100%" id="linearGradient-1">
            <stop stop-color="#FFFFFF" stop-opacity="0.5" offset="0%"></stop>
            <stop stop-color="#000000" stop-opacity="0.5" offset="100%"></stop>
        </linearGradient>
        <path d="M11.4770863,96 C5.14905374,96 0,90.8432556 0,84.4820886 L0,9.6 C0,4.26110231 4.27760546,0 9.55429917,0 L76.662069,0 L76.662069,3.84 L74.7275615,3.84 C71.5912901,3.84 68.9958621,6.41883986 68.9958621,9.6 C68.9958621,12.8033386 71.5620313,15.36 74.7275615,15.36 L76.662069,15.36 L76.662069,96 L19.1655172,96 L19.1655172,15.36 L67.0793103,15.36 C67.0793103,15.36 65.1627586,12.3282606 65.1627586,9.49844924 C65.1627586,6.66863789 67.0793103,3.84 67.0793103,3.84 L9.55733077,3.84 C6.3959273,3.84 3.83310345,6.39666136 3.83310345,9.6 C3.83310345,12.7811601 6.39076265,15.36 9.55733077,15.36 L15.3324138,15.36 L15.3324138,96 L11.4770863,96 Z M52.3155862,62.3574194 L32.4452414,62.3574194 L21.6584828,51.5458065 L21.6584828,31.5483871 L32.4452414,20.6554839 L62.2102069,20.6554839 L72.9969655,31.5483871 L72.9969655,44.88 L54.4242759,44.88 L54.4242759,38.1329032 L52.3155862,35.9380645 L42.4209655,35.9380645 L40.2311724,38.1329032 L40.2311724,44.9612903 L42.4209655,47.0748387 L62.2102069,47.0748387 L72.9969655,57.9677419 L72.9969655,77.64 L62.2102069,88.4516129 L32.4452414,88.4516129 L21.6584828,77.64 L21.6584828,64.6335484 L40.2311724,64.6335484 L40.2311724,70.9741935 L42.4209655,73.1690323 L52.3155862,73.1690323 L54.4242759,71.0554839 L54.4242759,64.5522581 L52.3155862,62.3574194 Z" id="path-2"></path>
        <filter x="-50%" y="-50%" width="200%" height="200%" filterUnits="objectBoundingBox" id="filter-3">
            <feGaussianBlur stdDeviation="1.5" in="SourceAlpha" result="shadowBlurInner1"></feGaussianBlur>
            <feOffset dx="0" dy="1" in="shadowBlurInner1" result="shadowOffsetInner1"></feOffset>
            <feComposite in="shadowOffsetInner1" in2="SourceAlpha" operator="arithmetic" k2="-1" k3="1" result="shadowInnerInner1"></feComposite>
            <feColorMatrix values="0 0 0 0 0   0 0 0 0 0   0 0 0 0 0  0 0 0 0.5 0" type="matrix" in="shadowInnerInner1"></feColorMatrix>
        </filter>
    </defs>
    <g id="Page-1" stroke="none" stroke-width="1" fill="none" fill-rule="evenodd">
        <g id="Artboard">
            <g id="1498170090_icon-30-book">
                <g id="Group">
                    <g id="Page-1">
                        <g id="icon-30-book">
                            <g id="Combined-Shape">
                                <use fill="#A85770" fill-rule="evenodd" xlink:href="#path-2"></use>
                                <use fill-opacity="0.1" fill="url(#linearGradient-1)" fill-rule="evenodd" xlink:href="#path-2"></use>
                                <use fill="black" fill-opacity="1" filter="url(#filter-3)" xlink:href="#path-2"></use>
                            </g>
                            <path d="M117.368276,73.1690323 L117.368276,61.9509677 L104.148414,61.9509677 L104.148414,73.1690323 L108.203586,73.1690323 L108.203586,88.4516129 L81.5205517,88.4516129 L81.5205517,73.1690323 L85.5757241,73.1690323 L85.5757241,35.9380645 L81.5205517,35.9380645 L81.5205517,20.6554839 L108.203586,20.6554839 L108.203586,35.9380645 L104.148414,35.9380645 L104.148414,45.2051613 L117.368276,45.2051613 L117.368276,35.9380645 L113.313103,35.9380645 L113.313103,20.6554839 L139.996138,20.6554839 L139.996138,35.9380645 L135.940966,35.9380645 L135.940966,73.1690323 L139.996138,73.1690323 L139.996138,88.4516129 L113.313103,88.4516129 L113.313103,73.1690323 L117.368276,73.1690323 Z M175.195034,62.3574194 L155.32469,62.3574194 L144.537931,51.5458065 L144.537931,31.5483871 L155.32469,20.6554839 L185.089655,20.6554839 L195.876414,31.5483871 L195.876414,44.88 L177.303724,44.88 L177.303724,38.1329032 L175.195034,35.9380645 L165.300414,35.9380645 L163.110621,38.1329032 L163.110621,44.9612903 L165.300414,47.0748387 L185.089655,47.0748387 L195.876414,57.9677419 L195.876414,77.64 L185.089655,88.4516129 L155.32469,88.4516129 L144.537931,77.64 L144.537931,64.6335484 L163.110621,64.6335484 L163.110621,70.9741935 L165.300414,73.1690323 L175.195034,73.1690323 L177.303724,71.0554839 L177.303724,64.5522581 L175.195034,62.3574194 Z" id="HS" fill="#A85770"></path>
                        </g>
                    </g>
                </g>
            </g>
        </g>
    </g>
</svg>