<svg width="196" height="96" viewBox="0 0 186 88" xmlns="http://www.w3.org/2000/svg"><path d="M0 9.6C0 4.26 4.28 0 9.55 0h67.1v3.84h-1.92C71.6 3.84 69 6.42 69 9.6c0 3.2 2.56 5.76 5.73 5.76h1.93v72.02h-57.5V15.36H67.1s-1.92-3.03-1.92-5.86c0-2.83 1.92-5.66 1.92-5.66H9.56C6.4 3.84 3.83 6.4 3.83 9.6c0 3.18 2.56 5.76 5.73 5.76h5.77v72.02h-3.85C5.15 87.38 0 82.22 0 75.86V9.6zm52.32 48.66l1.86 1.93v5.7l-1.86 1.85H43.6l-1.95-1.95v-5.6h-16.4v11.5l9.53 9.54h26.27l9.52-9.55V54.4l-9.52-9.6H43.6l-1.95-1.88V36.9l1.94-1.94h8.7l1.83 1.93v5.93h16.4v-11.8L61 21.43H34.8l-9.52 9.6V48.7l9.52 9.56h17.54zm62.08 9.44v-9.9h-11.7v9.9h3.58v13.5H82.75V67.7h3.58V34.86h-3.58v-13.5h23.55v13.5h-3.58v8.18h11.67v-8.18h-3.6v-13.5h23.52v13.5h-3.58V67.7h3.57v13.5h-23.5V67.7m56.7-9.53H150l-9.52-9.55V30.97l9.52-9.6h26.27l9.52 9.6v11.77h-16.4v-5.96l-1.9-1.93h-8.7l-1.95 1.93v6.03l1.93 1.9h17.5l9.5 9.6v17.4l-9.5 9.56H150l-9.5-9.53V60.2h16.4v5.6l1.9 1.93h8.74l1.88-1.85V60.1" fill="#a93636" fill-rule="evenodd"/></svg>
